<?xml version="1.0" encoding="utf-8"?>
<!-- Generator: Adobe Illustrator 17.1.0, SVG Export Plug-In . SVG Version: 6.00 Build 0)  -->
<!DOCTYPE svg PUBLIC "-//W3C//DTD SVG 1.1//EN" "http://www.w3.org/Graphics/SVG/1.1/DTD/svg11.dtd">
<svg version="1.1" id="Layer_1" xmlns="http://www.w3.org/2000/svg" xmlns:xlink="http://www.w3.org/1999/xlink" x="0px" y="0px"
	 viewBox="-96 237.9 721 474" enable-background="new -96 237.9 721 474" xml:space="preserve">
<title>Start_page</title>
<g id="pattern">
	<rect x="200.8" y="412.3" fill="none" stroke="#000000" stroke-width="4" stroke-miterlimit="10" width="130.5" height="130.5"/>
	<line fill="none" stroke="#000000" stroke-width="4" stroke-miterlimit="10" x1="164.6" y1="579.4" x2="368.4" y2="375.8"/>
	<line fill="none" stroke="#000000" stroke-width="4" stroke-miterlimit="10" x1="165.4" y1="376.9" x2="369.2" y2="580.7"/>
	<line fill="none" stroke="#000000" stroke-width="4" stroke-miterlimit="10" x1="538.3" y1="477.6" x2="-3.3" y2="477.6"/>
	<line fill="none" stroke="#000000" stroke-width="4" stroke-miterlimit="10" x1="266.5" y1="637.5" x2="266.5" y2="317.6"/>
	<circle fill="none" stroke="#000000" stroke-width="4" stroke-miterlimit="10" cx="266.2" cy="477.6" r="65.3"/>
	<circle fill="none" stroke="#000000" stroke-width="4" stroke-miterlimit="10" cx="266.2" cy="412.3" r="65.3"/>
	<circle fill="none" stroke="#000000" stroke-width="4" stroke-miterlimit="10" cx="266.2" cy="542.9" r="65.3"/>
	<circle fill="none" stroke="#000000" stroke-width="4" stroke-miterlimit="10" cx="331.9" cy="477" r="65.3"/>
	<circle fill="none" stroke="#000000" stroke-width="4" stroke-miterlimit="10" cx="201.6" cy="478.4" r="65.3"/>
	<rect x="219.9" y="431.4" fill="none" stroke="#000000" stroke-width="4" stroke-miterlimit="10" width="92.3" height="92.3"/>
	
		<rect x="219.9" y="431.5" transform="matrix(0.7071 0.7071 -0.7071 0.7071 415.6237 -48.2098)" fill="none" stroke="#000000" stroke-width="4" stroke-miterlimit="10" width="92.3" height="92.3"/>
	<circle fill="#FFFFFF" stroke="#000000" stroke-width="4" stroke-miterlimit="10" cx="-16.8" cy="477" r="13.5"/>
	<circle fill="#FFFFFF" stroke="#000000" stroke-width="4" stroke-miterlimit="10" cx="551.4" cy="478.8" r="13.5"/>
	<circle fill="#FFFFFF" stroke="#000000" stroke-width="4" stroke-miterlimit="10" cx="266.3" cy="305.1" r="13.5"/>
	<circle fill="#FFFFFF" stroke="#000000" stroke-width="4" stroke-miterlimit="10" cx="266.3" cy="652.1" r="13.5"/>
</g>
</svg>
